<svg width="69" height="53" viewBox="0 0 69 53" fill="none" xmlns="http://www.w3.org/2000/svg">
<path d="M58.4723 4.96853C54.1041 2.9642 49.4199 1.4875 44.5222 0.641731C44.433 0.625408 44.3439 0.666201 44.2979 0.747787C43.6955 1.81927 43.0282 3.2171 42.5609 4.3158C37.2931 3.52716 32.0524 3.52716 26.8926 4.3158C26.4252 3.19268 25.7337 1.81927 25.1285 0.747787C25.0826 0.668923 24.9935 0.628131 24.9043 0.641731C20.0093 1.4848 15.3251 2.9615 10.9541 4.96853C10.9163 4.98484 10.8839 5.01206 10.8623 5.04739C1.97728 18.3215 -0.456708 31.2693 0.737325 44.0566C0.742728 44.1191 0.777846 44.179 0.826472 44.217C6.68858 48.522 12.367 51.1355 17.94 52.8678C18.0292 52.8951 18.1237 52.8624 18.1805 52.789C19.4988 50.9887 20.6739 49.0905 21.6815 47.0942C21.741 46.9774 21.6842 46.8386 21.5627 46.7924C19.6987 46.0853 17.9238 45.2232 16.2165 44.2442C16.0815 44.1654 16.0707 43.9722 16.1949 43.8797C16.5542 43.6105 16.9135 43.3304 17.2566 43.0476C17.3187 42.9959 17.4052 42.985 17.4781 43.0176C28.6944 48.1386 40.8374 48.1386 51.9213 43.0176C51.9943 42.9823 52.0808 42.9932 52.1456 43.0449C52.4887 43.3277 52.848 43.6105 53.21 43.8797C53.3342 43.9722 53.3261 44.1654 53.1911 44.2442C51.4838 45.2422 49.7089 46.0853 47.8422 46.7897C47.7207 46.8359 47.6666 46.9774 47.7261 47.0942C48.7553 49.0877 49.9304 50.9859 51.2244 52.7863C51.2784 52.8624 51.3756 52.8951 51.4648 52.8678C57.0649 51.1355 62.7433 48.522 68.6054 44.217C68.6567 44.179 68.6892 44.1218 68.6946 44.0593C70.1236 29.2758 66.301 16.4341 58.5614 5.05009C58.5425 5.01206 58.5102 4.98484 58.4723 4.96853ZM23.3565 36.2705C19.9796 36.2705 17.1971 33.1702 17.1971 29.3628C17.1971 25.5555 19.9256 22.4552 23.3565 22.4552C26.8142 22.4552 29.5697 25.5827 29.5157 29.3628C29.5157 33.1702 26.7872 36.2705 23.3565 36.2705ZM46.1295 36.2705C42.7527 36.2705 39.9703 33.1702 39.9703 29.3628C39.9703 25.5555 42.6986 22.4552 46.1295 22.4552C49.5873 22.4552 52.3428 25.5827 52.2888 29.3628C52.2888 33.1702 49.5873 36.2705 46.1295 36.2705Z" fill="url(#paint0_linear_1337_821)"/>
<defs>
<linearGradient id="paint0_linear_1337_821" x1="34.7219" y1="0.638184" x2="34.7219" y2="52.8774" gradientUnits="userSpaceOnUse">
<stop stop-color="white"/>
<stop offset="1" stop-color="white" stop-opacity="0.5"/>
</linearGradient>
</defs>
</svg>
