<svg width="61" height="70" viewBox="0 0 61 70" fill="none" xmlns="http://www.w3.org/2000/svg">
<path d="M51.4563 14.2275C47.7645 11.8204 45.1 7.96909 44.2688 3.47949C44.0892 2.50947 43.9906 1.51117 43.9906 0.489746H32.2079L32.189 47.7106C31.9909 52.9985 27.6388 57.2426 22.3034 57.2426C20.6452 57.2426 19.0837 56.828 17.709 56.1046C14.5564 54.4456 12.3989 51.141 12.3989 47.3383C12.3989 41.8767 16.8423 37.4333 22.3034 37.4333C23.3229 37.4333 24.3008 37.6015 25.2259 37.8912V25.8624C24.2685 25.7321 23.2959 25.6506 22.3034 25.6506C10.3448 25.6506 0.616211 35.3797 0.616211 47.3383C0.616211 54.6754 4.28202 61.1685 9.87462 65.0947C13.3973 67.5678 17.6822 69.0253 22.3034 69.0253C34.262 69.0253 43.9906 59.2968 43.9906 47.3383V23.3932C48.6119 26.7101 54.2738 28.6647 60.3832 28.6647V16.8821C57.0922 16.8821 54.027 15.9037 51.4563 14.2275" fill="url(#paint0_linear_1337_822)"/>
<defs>
<linearGradient id="paint0_linear_1337_822" x1="30.4997" y1="0.489746" x2="30.4997" y2="69.0253" gradientUnits="userSpaceOnUse">
<stop stop-color="white"/>
<stop offset="1" stop-color="white" stop-opacity="0.5"/>
</linearGradient>
</defs>
</svg>
