<svg width="69" height="49" viewBox="0 0 69 49" fill="none" xmlns="http://www.w3.org/2000/svg">
<path fill-rule="evenodd" clip-rule="evenodd" d="M60.9799 2.19188C63.9272 2.98369 66.2586 5.31515 67.0504 8.26242C68.5021 13.6291 68.5461 24.7585 68.5461 24.7585C68.5461 24.7585 68.5461 35.9318 67.0944 41.2545C66.3026 44.2018 63.9712 46.5332 61.0239 47.3251C55.7011 48.7767 34.2783 48.7767 34.2783 48.7767C34.2783 48.7767 12.8554 48.7767 7.5327 47.3251C4.5854 46.5332 2.25396 44.2018 1.46215 41.2545C0.010498 35.8878 0.010498 24.7585 0.010498 24.7585C0.010498 24.7585 0.010498 13.6291 1.41816 8.30643C2.20997 5.35913 4.54141 3.02769 7.4887 2.23589C12.8114 0.784213 34.2343 0.740234 34.2343 0.740234C34.2343 0.740234 55.6572 0.740234 60.9799 2.19188ZM45.1877 24.7585L27.4159 35.052V14.4649L45.1877 24.7585Z" fill="url(#paint0_linear_1337_823)"/>
<defs>
<linearGradient id="paint0_linear_1337_823" x1="34.2783" y1="0.740234" x2="34.2783" y2="48.7767" gradientUnits="userSpaceOnUse">
<stop stop-color="white"/>
<stop offset="1" stop-color="white" stop-opacity="0.5"/>
</linearGradient>
</defs>
</svg>
